<?xml version="1.0" encoding="utf-8"?>
<!-- Generator: Adobe Illustrator 16.0.0, SVG Export Plug-In . SVG Version: 6.00 Build 0)  -->
<!DOCTYPE svg PUBLIC "-//W3C//DTD SVG 1.1//EN" "http://www.w3.org/Graphics/SVG/1.1/DTD/svg11.dtd">
<svg version="1.1" id="Layer_1" xmlns="http://www.w3.org/2000/svg" xmlns:xlink="http://www.w3.org/1999/xlink" x="0px" y="0px"
	 width="93.768px" height="200px" viewBox="58.407 124.579 93.768 200" enable-background="new 58.407 124.579 93.768 200"
	 xml:space="preserve">
<g>
	<path fill="#111111" d="M77.314,211.956c0-4.303,2.147-7.004,6.451-8.098v-1.954c-0.302,0-2.3,0.05-6.002,0.153
		c-3.702,0.095-6.051,0.142-7.053,0.142c-0.802,0-2.975-0.047-6.525-0.142c-3.551-0.103-5.479-0.153-5.778-0.153v1.954
		c4.301,1.192,6.454,3.896,6.454,8.098v76.513c0,4.294-2.153,7.001-6.454,8.095v1.954c0.299,0,2.228-0.055,5.778-0.149
		c3.55-0.104,5.723-0.152,6.525-0.152c1.002,0,3.375,0.047,7.127,0.152c3.753,0.095,5.723,0.149,5.927,0.149v-1.954
		c-4.303-1.199-6.451-3.903-6.451-8.095v-37.81h16.482v-6.457H77.314V211.956z"/>
	<path fill="#111111" d="M152.175,203.858v-1.954c-0.3,0-2.23,0.05-5.775,0.153c-3.554,0.095-5.729,0.142-6.525,0.142
		c-1.002,0-3.354-0.047-7.057-0.142c-3.698-0.103-5.649-0.153-5.846-0.153v1.954c4.199,1.192,6.298,3.896,6.298,8.098v32.247
		h-16.484v6.456h16.484v37.81c0,4.295-2.099,7.002-6.298,8.096v1.954c0.299,0,2.273-0.055,5.922-0.149
		c3.653-0.105,5.979-0.152,6.98-0.152c0.899,0,3.121,0.047,6.675,0.152c3.546,0.095,5.421,0.149,5.626,0.149v-1.954
		c-4.301-1.199-6.452-3.903-6.452-8.096v-76.512C145.723,207.653,147.874,204.952,152.175,203.858z"/>
	<path fill="#111111" d="M118.149,168.287l0.266,0.084c1.205,0.442,2.317,0.918,3.341,1.439l-0.011,0.013l0.187,0.076
		c6.962,3.563,9.731,8.763,10.691,13.313c0.331,1.557,0.453,3.035,0.453,4.35c-0.032,0.05-0.063,0.095-0.101,0.142l0.011,1.699
		c0.01-0.011,0.019-0.016,0.026-0.023c-0.164,2.104-0.558,3.458-0.558,3.458c2.972-2.288,5.778-5.865,8.053-10.349
		c0.031-0.071-0.457-0.758-0.457-0.758s0.791,0.084,0.836-0.008c0.045-0.097,0.092-0.189,0.134-0.286
		c0.022-0.042-0.609-0.939-0.609-0.939s1.1-0.127,1.12-0.174c2.254-5.097,3.83-11.167,4.274-17.732
		c0.016-0.218,0.068-1.145,0.079-1.394c0.033-0.792,0.05-1.602,0.05-2.412v-0.156c0-5.263-0.618-9.828-1.883-14.373
		c-0.004-0.002-0.006-0.008-0.01-0.013c-0.149-0.556-0.305-1.102-0.47-1.642c-2.33-7.834-6.136-13.866-10.434-17.471
		c-0.011-0.01-0.021-0.021-0.031-0.021c-0.214-0.181-0.435-0.368-0.652-0.534c0,0,1.283,4.382,0.168,9.626
		c-0.723,3.418-2.462,7.201-6.229,10.38l-0.362,0.118l0.121,0.084c-1.991,1.625-4.518,3.09-7.738,4.248l-0.266,0.098
		c0,1.754-1.422,3.177-3.174,3.177c-1.75,0-3.178-1.423-3.178-3.177c0,0-1.025-0.087-1.97-0.305c0.252-3.84,0.505-6.254,0.505-6.83
		c0-0.718-1.044-1.26-2.359-1.57c0.722,0.14,1.229,0.276,1.229,0.276c0-4.965-1.74-8.992-3.886-8.992
		c-2.146,0-3.883,4.026-3.883,8.992c0,0,0.411-0.116,1.021-0.24c-1.236,0.316-2.189,0.842-2.189,1.534
		c0,0.576,0.249,2.991,0.506,6.83c-0.949,0.218-1.987,0.305-1.987,0.305c0,1.754-1.425,3.177-3.178,3.177
		c-0.296,0-0.583-0.045-0.859-0.126c-0.055-0.014-0.109-0.037-0.167-0.063c-0.017-0.01-0.038-0.01-0.063-0.01
		c-0.489-0.182-0.921-0.474-1.264-0.854c-0.037-0.04-0.074-0.076-0.108-0.116c-0.026-0.04-0.058-0.084-0.084-0.116
		c-0.032-0.044-0.065-0.087-0.095-0.128c-0.026-0.04-0.05-0.084-0.076-0.126c-0.026-0.047-0.053-0.089-0.078-0.131
		c-0.025-0.047-0.046-0.098-0.068-0.147c-0.022-0.042-0.046-0.087-0.064-0.131c-0.021-0.05-0.039-0.103-0.057-0.158
		c-0.014-0.042-0.035-0.082-0.047-0.131c-0.018-0.053-0.032-0.116-0.046-0.171c-0.011-0.044-0.022-0.087-0.034-0.134
		c-0.013-0.057-0.02-0.129-0.027-0.194c-0.007-0.04-0.014-0.079-0.02-0.113c-0.009-0.105-0.015-0.21-0.015-0.324l-0.269-0.098
		c-2.752-0.988-4.999-2.201-6.835-3.553l0.065-0.042l-0.527-0.3c-4.243-3.293-6.144-7.319-6.908-10.936
		c-1.118-5.244,0.169-9.626,0.169-9.626c-7.226,5.562-13.48,18.763-13.48,34.054v0.156c0,0.81,0.016,1.62,0.053,2.412
		c0.006,0.25,0.548,0.742,0.548,0.742s-0.489,0.434-0.473,0.652c0.447,6.564,2.024,12.635,4.275,17.731
		c0.02,0.047,1.122,0.174,1.122,0.174s-0.633,0.897-0.611,0.939c0.042,0.097,0.088,0.189,0.132,0.287
		c0.046,0.092,0.836,0.008,0.836,0.008s-0.491,0.687-0.458,0.758c2.278,4.484,5.084,8.061,8.056,10.349c0,0-0.398-1.354-0.557-3.458
		c0.005,0.008,0.012,0.013,0.022,0.023l0.015-1.699c-0.037-0.048-0.067-0.092-0.104-0.142c0-1.315,0.126-2.793,0.456-4.35
		c0.726-3.445,2.486-7.259,6.319-10.455l1.083-0.85c1.411-1.026,3.062-1.98,4.991-2.812l0.282,0.074
		c0.005-0.063,0.013-0.126,0.016-0.2c0.488-0.203,0.993-0.402,1.515-0.6l0.269-0.084c0-1.757,1.419-3.177,3.17-3.177
		c1.28,0,2.378,0.757,2.884,1.852c-0.001,0.434-0.017,0.896-0.048,1.407l1.211,0.016c0.5,0.074,1.131,0.187,1.654,0.355
		c-0.013,1.828-0.032,3.566-0.061,5.199c-0.937,0.531-0.965,1.058-0.965,1.058l0.724,1.326c0.051-0.032,0.121-0.058,0.199-0.084
		c-0.146,7.085-0.38,11.625-0.38,11.625s0.438,0.949,0.426,1.172c-0.013,0.237-0.808,1.236-0.808,1.236l-0.342,4.14l-0.51,0.934
		c0,0,0.026,0.523,0.893,1.078c0.15,4.892,0.46,19.375,0.46,55.715c0,48-2.688,67.823-2.688,67.823s1.883,0.607,3.522,0.923
		c0.124,0.028,0.247,0.053,0.373,0.076c0.669,0.305,1.132,0.924,1.132,1.597v0.053c0.026,1.094,0.92,1.967,2.021,1.967
		s1.992-0.882,2.016-1.978l0.005-0.042c0-0.498,0.253-0.947,0.658-1.261c0.174-0.128,0.368-0.252,0.584-0.35
		c0.087-0.021,0.171-0.041,0.257-0.062c0.158-0.034,0.321-0.073,0.479-0.113c0.013,0,0.026-0.004,0.036-0.004h-0.026
		c1.493-0.367,3.035-0.806,3.035-0.806s-2.688-19.823-2.688-67.823c0-36.33,0.307-50.813,0.46-55.71
		c0.681-0.444,0.96-0.959,0.96-0.959l-0.571-0.889l-0.729-6.717c0,0-0.236-4.514-0.384-11.573c0.026,0.011,0.048,0.021,0.071,0.032
		l0.917-1.436c0,0-0.296-0.539-1.03-0.949c-0.026-1.631-0.05-3.375-0.058-5.2c1.039-0.334,2.504-0.45,2.504-0.45
		c0-1.757,1.428-3.177,3.177-3.177C116.728,165.11,118.149,166.53,118.149,168.287z"/>
</g>
</svg>
